<svg xmlns="http://www.w3.org/2000/svg" xmlns:xlink="http://www.w3.org/1999/xlink" width="200" zoomAndPan="magnify" viewBox="0 0 150 37.5" height="50" preserveAspectRatio="xMidYMid meet" version="1.0"><defs><g/><clipPath id="be3ab07d32"><rect x="0" width="69" y="0" height="30"/></clipPath><clipPath id="718d2d6fa6"><path d="M 32 3.699219 L 58 3.699219 L 58 33 L 32 33 Z M 32 3.699219 " clip-rule="nonzero"/></clipPath></defs><g transform="matrix(1, 0, 0, 1, 57, 4)"><g clip-path="url(#be3ab07d32)"><g fill="#ff914d" fill-opacity="1"><g transform="translate(0.997359, 11.17291)"><g><path d="M 2.484375 -6.34375 L 0.1875 -6.34375 L 0.1875 -8.34375 L 6.90625 -8.34375 L 6.90625 -6.34375 L 4.609375 -6.34375 L 4.609375 0 L 2.484375 0 Z M 2.484375 -6.34375 "/></g></g></g><g fill="#ff914d" fill-opacity="1"><g transform="translate(9.334722, 11.17291)"><g><path d="M 0.875 -8.34375 L 2.984375 -8.34375 L 2.984375 -5.234375 L 5.859375 -5.234375 L 5.859375 -8.34375 L 7.96875 -8.34375 L 7.96875 0 L 5.859375 0 L 5.859375 -3.234375 L 2.984375 -3.234375 L 2.984375 0 L 0.875 0 Z M 0.875 -8.34375 "/></g></g></g><g fill="#ff914d" fill-opacity="1"><g transform="translate(19.414074, 11.17291)"><g><path d="M 0.875 -8.34375 L 3.6875 -8.34375 C 4.125 -8.34375 4.53125 -8.273438 4.90625 -8.140625 C 5.28125 -8.003906 5.601562 -7.8125 5.875 -7.5625 C 6.144531 -7.3125 6.351562 -7.015625 6.5 -6.671875 C 6.644531 -6.335938 6.71875 -5.960938 6.71875 -5.546875 C 6.71875 -5.054688 6.613281 -4.617188 6.40625 -4.234375 C 6.207031 -3.847656 5.921875 -3.53125 5.546875 -3.28125 L 7.34375 0 L 4.921875 0 L 3.53125 -2.765625 L 2.984375 -2.765625 L 2.984375 0 L 0.875 0 Z M 3.5625 -4.5625 C 3.875 -4.5625 4.125 -4.648438 4.3125 -4.828125 C 4.507812 -5.015625 4.609375 -5.253906 4.609375 -5.546875 C 4.609375 -5.847656 4.507812 -6.085938 4.3125 -6.265625 C 4.125 -6.441406 3.875 -6.53125 3.5625 -6.53125 L 2.984375 -6.53125 L 2.984375 -4.5625 Z M 3.5625 -4.5625 "/></g></g></g><g fill="#ff914d" fill-opacity="1"><g transform="translate(28.124718, 11.17291)"><g><path d="M 0.875 -8.34375 L 2.984375 -8.34375 L 2.984375 0 L 0.875 0 Z M 0.875 -8.34375 "/></g></g></g><g fill="#ff914d" fill-opacity="1"><g transform="translate(33.226963, 11.17291)"><g><path d="M 0 -8.34375 L 2.265625 -8.34375 L 3.921875 -3.765625 L 5.609375 -8.34375 L 7.71875 -8.34375 L 4.453125 0.125 L 3.21875 0.125 Z M 0 -8.34375 "/></g></g></g><g fill="#ff914d" fill-opacity="1"><g transform="translate(42.186464, 11.17291)"><g><path d="M 0.875 -8.34375 L 2.984375 -8.34375 L 2.984375 0 L 0.875 0 Z M 0.875 -8.34375 "/></g></g></g><g fill="#ff914d" fill-opacity="1"><g transform="translate(47.288708, 11.17291)"><g><path d="M 2.859375 -4.53125 L 2.859375 0 L 0.875 0 L 0.875 -8.46875 L 2.109375 -8.46875 L 6.40625 -3.8125 L 6.40625 -8.34375 L 8.40625 -8.34375 L 8.40625 0.125 L 7.15625 0.125 Z M 2.859375 -4.53125 "/></g></g></g><g fill="#ff914d" fill-opacity="1"><g transform="translate(57.803555, 11.17291)"><g><path d="M 4.59375 0.1875 C 3.988281 0.1875 3.425781 0.078125 2.90625 -0.140625 C 2.394531 -0.359375 1.953125 -0.660156 1.578125 -1.046875 C 1.203125 -1.429688 0.90625 -1.890625 0.6875 -2.421875 C 0.476562 -2.953125 0.375 -3.523438 0.375 -4.140625 C 0.375 -4.765625 0.484375 -5.34375 0.703125 -5.875 C 0.921875 -6.414062 1.226562 -6.882812 1.625 -7.28125 C 2.019531 -7.675781 2.484375 -7.984375 3.015625 -8.203125 C 3.554688 -8.421875 4.132812 -8.53125 4.75 -8.53125 C 5.445312 -8.53125 6.078125 -8.394531 6.640625 -8.125 C 7.203125 -7.863281 7.679688 -7.5 8.078125 -7.03125 L 6.578125 -5.609375 C 6.046875 -6.140625 5.457031 -6.40625 4.8125 -6.40625 C 4.488281 -6.40625 4.191406 -6.347656 3.921875 -6.234375 C 3.660156 -6.128906 3.429688 -5.976562 3.234375 -5.78125 C 3.035156 -5.582031 2.878906 -5.335938 2.765625 -5.046875 C 2.660156 -4.765625 2.609375 -4.460938 2.609375 -4.140625 C 2.609375 -3.796875 2.660156 -3.484375 2.765625 -3.203125 C 2.878906 -2.921875 3.035156 -2.675781 3.234375 -2.46875 C 3.429688 -2.257812 3.671875 -2.097656 3.953125 -1.984375 C 4.234375 -1.867188 4.539062 -1.8125 4.875 -1.8125 C 5.375 -1.8125 5.820312 -1.941406 6.21875 -2.203125 L 6.21875 -3.28125 L 4.921875 -3.28125 L 4.921875 -4.890625 L 8.34375 -4.890625 L 8.34375 -1.3125 C 7.894531 -0.832031 7.347656 -0.460938 6.703125 -0.203125 C 6.054688 0.0546875 5.351562 0.1875 4.59375 0.1875 Z M 4.59375 0.1875 "/></g></g></g><g fill="#ff914d" fill-opacity="1"><g transform="translate(5.663415, 25.604724)"><g><path d="M 4.75 0.1875 C 4.132812 0.1875 3.554688 0.078125 3.015625 -0.140625 C 2.484375 -0.359375 2.019531 -0.660156 1.625 -1.046875 C 1.226562 -1.441406 0.921875 -1.90625 0.703125 -2.4375 C 0.484375 -2.976562 0.375 -3.5625 0.375 -4.1875 C 0.375 -4.8125 0.484375 -5.382812 0.703125 -5.90625 C 0.921875 -6.4375 1.226562 -6.894531 1.625 -7.28125 C 2.019531 -7.675781 2.484375 -7.984375 3.015625 -8.203125 C 3.546875 -8.421875 4.125 -8.53125 4.75 -8.53125 C 5.414062 -8.53125 6.03125 -8.398438 6.59375 -8.140625 C 7.164062 -7.890625 7.660156 -7.519531 8.078125 -7.03125 L 6.59375 -5.625 C 6.375 -5.875 6.113281 -6.066406 5.8125 -6.203125 C 5.519531 -6.335938 5.195312 -6.40625 4.84375 -6.40625 C 4.519531 -6.40625 4.21875 -6.347656 3.9375 -6.234375 C 3.664062 -6.128906 3.429688 -5.976562 3.234375 -5.78125 C 3.046875 -5.582031 2.894531 -5.347656 2.78125 -5.078125 C 2.664062 -4.804688 2.609375 -4.507812 2.609375 -4.1875 C 2.609375 -3.851562 2.664062 -3.546875 2.78125 -3.265625 C 2.894531 -2.992188 3.050781 -2.757812 3.25 -2.5625 C 3.445312 -2.363281 3.679688 -2.207031 3.953125 -2.09375 C 4.234375 -1.988281 4.535156 -1.9375 4.859375 -1.9375 C 5.234375 -1.9375 5.5625 -2.003906 5.84375 -2.140625 C 6.132812 -2.285156 6.382812 -2.476562 6.59375 -2.71875 L 8.09375 -1.3125 C 7.695312 -0.84375 7.210938 -0.472656 6.640625 -0.203125 C 6.078125 0.0546875 5.445312 0.1875 4.75 0.1875 Z M 4.75 0.1875 "/></g></g></g><g fill="#ff914d" fill-opacity="1"><g transform="translate(15.182841, 25.604724)"><g><path d="M 3.34375 -8.46875 L 4.953125 -8.46875 L 8.15625 0 L 5.890625 0 L 5.484375 -1.234375 L 2.71875 -1.234375 L 2.296875 0 L 0.0625 0 Z M 4.875 -2.96875 L 4.09375 -5.3125 L 3.296875 -2.96875 Z M 4.875 -2.96875 "/></g></g></g><g fill="#ff914d" fill-opacity="1"><g transform="translate(24.640055, 25.604724)"><g><path d="M 0.875 -8.34375 L 3.5625 -8.34375 C 4.019531 -8.34375 4.441406 -8.269531 4.828125 -8.125 C 5.210938 -7.976562 5.546875 -7.773438 5.828125 -7.515625 C 6.109375 -7.265625 6.328125 -6.960938 6.484375 -6.609375 C 6.640625 -6.253906 6.71875 -5.863281 6.71875 -5.4375 C 6.71875 -5.019531 6.640625 -4.632812 6.484375 -4.28125 C 6.328125 -3.925781 6.109375 -3.617188 5.828125 -3.359375 C 5.554688 -3.097656 5.234375 -2.894531 4.859375 -2.75 C 4.484375 -2.613281 4.078125 -2.546875 3.640625 -2.546875 L 2.984375 -2.546875 L 2.984375 0 L 0.875 0 Z M 3.5625 -4.46875 C 3.875 -4.46875 4.125 -4.554688 4.3125 -4.734375 C 4.507812 -4.910156 4.609375 -5.144531 4.609375 -5.4375 C 4.609375 -5.726562 4.507812 -5.960938 4.3125 -6.140625 C 4.125 -6.316406 3.875 -6.40625 3.5625 -6.40625 L 2.984375 -6.40625 L 2.984375 -4.46875 Z M 3.5625 -4.46875 "/></g></g></g><g fill="#ff914d" fill-opacity="1"><g transform="translate(33.03963, 25.604724)"><g><path d="M 0.875 -8.34375 L 2.984375 -8.34375 L 2.984375 0 L 0.875 0 Z M 0.875 -8.34375 "/></g></g></g><g fill="#ff914d" fill-opacity="1"><g transform="translate(38.141874, 25.604724)"><g><path d="M 2.484375 -6.34375 L 0.1875 -6.34375 L 0.1875 -8.34375 L 6.90625 -8.34375 L 6.90625 -6.34375 L 4.609375 -6.34375 L 4.609375 0 L 2.484375 0 Z M 2.484375 -6.34375 "/></g></g></g><g fill="#ff914d" fill-opacity="1"><g transform="translate(46.479237, 25.604724)"><g><path d="M 3.34375 -8.46875 L 4.953125 -8.46875 L 8.15625 0 L 5.890625 0 L 5.484375 -1.234375 L 2.71875 -1.234375 L 2.296875 0 L 0.0625 0 Z M 4.875 -2.96875 L 4.09375 -5.3125 L 3.296875 -2.96875 Z M 4.875 -2.96875 "/></g></g></g><g fill="#ff914d" fill-opacity="1"><g transform="translate(55.93645, 25.604724)"><g><path d="M 0.875 -8.34375 L 2.984375 -8.34375 L 2.984375 -2 L 5.734375 -2 L 5.734375 0 L 0.875 0 Z M 0.875 -8.34375 "/></g></g></g></g></g><g clip-path="url(#718d2d6fa6)"><path fill="#ff914d" d="M 45.917969 10.859375 C 42.429688 12.34375 39.070312 14.226562 36.867188 17.410156 C 35.273438 19.71875 34.359375 22.359375 33.71875 25.070312 C 33.644531 25.378906 33.621094 26.070312 33.425781 26.3125 C 33.425781 26.3125 37.363281 19.625 47.300781 17.257812 C 47.300781 17.257812 44.15625 18.808594 41.667969 20.421875 C 31.636719 26.933594 32.707031 32.9375 32.707031 32.9375 C 32.707031 32.9375 33.308594 30.351562 39.195312 27.851562 C 43.292969 26.113281 48.625 24.460938 52.746094 20.921875 C 60.519531 14.238281 57.003906 3.703125 57.003906 3.703125 C 57.003906 3.703125 56.222656 6.472656 45.917969 10.859375 " fill-opacity="1" fill-rule="nonzero"/></g><path fill="#ff914d" d="M 27.386719 17.121094 C 26.277344 16.28125 24.945312 15.5 23.347656 14.816406 C 22.625 14.507812 21.84375 14.21875 21.007812 13.953125 C 21.007812 13.953125 18.925781 24.5625 29.871094 28.464844 C 29.984375 28.503906 30.09375 28.542969 30.207031 28.582031 C 30.207031 28.582031 30.15625 25.953125 28.4375 23.179688 C 28.15625 22.722656 27.828125 22.265625 27.445312 21.808594 C 27.183594 21.496094 26.894531 21.1875 26.582031 20.886719 C 26.582031 20.886719 26.898438 21.023438 27.382812 21.34375 C 28.074219 21.792969 29.101562 22.621094 30.070312 23.960938 C 31.097656 25.386719 32.058594 27.394531 32.453125 30.164062 C 32.453125 30.164062 33.085938 27.660156 32.332031 24.523438 C 31.765625 22.148438 30.40625 19.414062 27.386719 17.121094 " fill-opacity="1" fill-rule="nonzero"/></svg>